# xmcd
#
# Track frame offsets:
#       150
#       21861
#       62226
#       112475
#       134947
#       168224
#       193366
#
# Disc length: 2988 seconds
#
# Revision: 0
# Processed by: cddbd v1.5.2PL0 Copyright (c) Steve Scherf et al.
# Submitted via: WaveLab 4.01
#
DISCID=720baa07
DTITLE=Dave Brubeck Trio featuring Gerry Mulligan - BLUES ROOTS
DYEAR=1969
DGENRE=Jazz
TTITLE0=Limehouse Blues
TTITLE1=Journey
TTITLE2=Cross Ties
TTITLE3=Broke Blues
TTITLE4=Things Ain't What They Used To Be
TTITLE5=Movin' Out
TTITLE6=Blues Roots
EXTD=
EXTT0=
EXTT1=
EXTT2=
EXTT3=
EXTT4=
EXTT5=
EXTT6=
PLAYORDER=
